<?xml version="1.0" standalone="no"?>
<!DOCTYPE svg PUBLIC "-//W3C//DTD SVG 20010904//EN"
 "http://www.w3.org/TR/2001/REC-SVG-20010904/DTD/svg10.dtd">
<svg version="1.0" xmlns="http://www.w3.org/2000/svg"
 width="1110.000000pt" height="1280.000000pt" viewBox="0 0 1110.000000 1280.000000"
 preserveAspectRatio="xMidYMid meet">
<g transform="translate(0.000000,1280.000000) scale(0.100000,-0.100000)"
fill="#000000" stroke="none">
<path d="M7945 12789 c-430 -40 -806 -149 -1190 -343 -353 -179 -610 -370
-900 -667 -276 -283 -471 -559 -654 -927 -134 -269 -218 -492 -307 -816 -123
-452 -202 -876 -246 -1331 -20 -203 -16 -804 6 -990 40 -342 91 -581 186 -865
97 -291 213 -532 372 -770 130 -196 207 -290 367 -450 203 -202 377 -335 636
-483 104 -59 115 -68 80 -62 -22 3 -215 8 -430 11 -437 6 -676 -3 -683 -24 -4
-11 18 -13 119 -6 202 12 821 9 939 -5 110 -13 188 -29 194 -40 3 -4 -3 -17
-13 -30 -17 -22 -27 -23 -237 -36 -336 -21 -509 -55 -668 -130 -78 -37 -196
-118 -196 -135 0 -18 21 -10 63 23 156 125 404 195 742 212 66 3 151 8 189 11
l68 5 -45 -58 c-175 -221 -390 -413 -463 -413 -12 0 -27 -7 -34 -15 -22 -27
24 -62 188 -143 85 -42 151 -80 148 -86 -62 -139 -107 -294 -125 -429 -6 -43
-11 -166 -11 -272 0 -351 -31 -580 -110 -809 -156 -452 -477 -816 -1070 -1210
-406 -271 -626 -381 -1040 -520 -490 -164 -986 -283 -2246 -535 -879 -176
-1115 -230 -1339 -308 -116 -41 -160 -62 -204 -99 -21 -18 -29 -30 -22 -37 6
-6 15 -4 26 7 105 104 422 187 1660 435 1129 225 1594 336 2104 503 418 136
682 266 1076 529 580 388 905 750 1068 1189 85 230 107 376 117 765 6 218 13
349 24 410 20 108 69 272 101 336 l24 46 168 -67 c195 -78 435 -159 578 -196
119 -30 235 -43 235 -25 0 6 -11 78 -25 159 -65 388 -73 557 -32 662 l25 64
198 2 c261 1 408 23 679 100 774 218 1590 819 2178 1601 436 580 726 1253 821
1903 83 567 85 1251 6 1759 -197 1271 -847 2120 -1880 2460 -378 124 -830 176
-1215 140z"/>
</g>
</svg>
