<svg xmlns="http://www.w3.org/2000/svg"
 width="865.000000pt" height="1280.000000pt" viewBox="0 0 865.000000 1280.000000"
 preserveAspectRatio="xMidYMid meet">
<g transform="translate(0.000000,1280.000000) scale(0.100000,-0.100000)"
fill="#000000" stroke="none">
<path d="M6350 12789 c-510 -58 -993 -324 -1349 -743 -156 -183 -329 -479
-406 -692 -15 -43 -29 -80 -29 -81 -1 -1 -28 5 -61 13 -116 27 -277 44 -415
44 -209 0 -337 -20 -591 -90 l-46 -13 -79 67 c-179 154 -431 298 -655 375
-216 73 -388 102 -625 102 -180 0 -305 -16 -477 -60 -993 -256 -1710 -1313
-1606 -2367 62 -631 368 -1362 796 -1899 111 -140 331 -361 452 -454 186 -142
377 -240 569 -290 76 -20 99 -30 91 -38 -8 -8 -6 -14 8 -23 18 -12 17 -17 -25
-123 -56 -141 -72 -214 -52 -228 20 -14 253 -4 389 16 57 8 106 13 108 11 2
-2 15 -71 28 -155 110 -691 298 -1299 632 -2041 59 -129 236 -494 395 -810
467 -928 613 -1238 773 -1645 157 -395 332 -950 319 -1007 -3 -16 -1 -28 4
-28 6 0 9 -108 9 -287 -1 -159 2 -298 7 -311 5 -14 14 -22 24 -20 14 3 16 14
14 58 -5 95 10 482 18 473 10 -9 30 -310 30 -442 0 -93 10 -116 37 -88 14 14
14 43 4 259 -7 134 -14 251 -17 261 -3 9 -2 17 3 17 5 0 21 -102 37 -228 16
-125 31 -242 34 -260 5 -34 26 -52 42 -36 5 5 -6 124 -25 267 -20 154 -31 282
-29 317 3 32 1 61 -4 64 -17 10 83 546 159 851 155 618 352 1145 774 2070 389
850 552 1245 706 1708 195 586 332 1180 425 1840 25 180 30 198 48 202 95 18
167 39 176 50 14 17 -11 68 -96 193 -34 51 -64 101 -66 112 -3 18 11 25 99 55
232 78 439 213 671 439 559 544 986 1422 1062 2185 48 489 -89 1018 -376 1448
-227 340 -524 604 -867 772 -329 161 -703 229 -1047 190z m-277 -4992 c92 -40
246 -87 283 -87 18 0 22 -4 17 -16 -4 -10 0 -22 10 -29 14 -10 12 -22 -24
-110 -52 -129 -76 -222 -60 -238 14 -14 188 -12 318 3 52 6 97 9 100 6 12 -12
-63 -501 -123 -806 -137 -683 -320 -1279 -601 -1955 -106 -255 -183 -428 -438
-990 -304 -668 -457 -1048 -595 -1470 -134 -413 -252 -901 -317 -1315 -28
-178 -27 -85 1 162 65 564 81 865 80 1493 -1 863 -39 1299 -244 2775 -97 696
-96 679 -55 680 6 0 27 5 48 11 29 8 37 15 37 32 0 23 -62 131 -124 217 -18
25 -36 56 -39 70 -6 24 -2 27 58 44 36 10 107 37 158 60 464 211 929 725 1258
1393 l80 162 45 -29 c24 -15 82 -44 127 -63z m-3110 -984 c205 -213 381 -349
580 -449 95 -48 264 -109 335 -120 33 -5 40 -9 31 -20 -8 -10 -6 -16 8 -25 18
-11 17 -16 -24 -118 -48 -119 -69 -201 -59 -227 6 -15 20 -16 159 -11 83 4
195 13 247 21 52 9 98 12 101 8 3 -4 11 -52 18 -107 7 -55 34 -260 61 -455
148 -1073 189 -1412 225 -1885 51 -673 47 -1472 -10 -2100 -25 -282 -68 -645
-77 -645 -4 0 -15 26 -24 58 -154 549 -303 954 -552 1497 -53 116 -259 536
-458 935 -395 790 -527 1071 -669 1430 -225 568 -385 1166 -450 1677 l-7 52
57 16 c31 9 59 24 62 32 8 20 -17 71 -92 183 -91 137 -91 130 13 163 97 31
259 110 342 167 30 21 59 38 63 39 5 1 59 -51 120 -116z"/>
</g>
</svg>
