<svg xmlns="http://www.w3.org/2000/svg" xmlns:xlink="http://www.w3.org/1999/xlink" xmlns:lucid="lucid" width="320" height="282"><g transform="translate(-439 -139)" lucid:page-tab-id="0_0"><path d="M0 0h1000v500H0z" fill="#fff"/><path d="M614 180c0 11.05-8.5 20-19 20s-19-8.95-19-20 8.5-20 19-20 19 8.95 19 20z" stroke="#282c33" stroke-width="2" fill="#fff"/><use xlink:href="#a" transform="matrix(1,0,0,1,580.9999999999998,165) translate(6.011172839506173 19.71527777777778)"/><path d="M538 280c0 11.05-8.5 20-19 20s-19-8.95-19-20 8.5-20 19-20 19 8.95 19 20z" stroke="#282c33" stroke-width="2" fill="#fff"/><use xlink:href="#b" transform="matrix(1,0,0,1,505,265) translate(2.708703703703703 19.71527777777778)"/><path d="M700 280c0 11.05-8.5 20-19 20s-19-8.95-19-20 8.5-20 19-20 19 8.95 19 20z" stroke="#282c33" stroke-width="2" fill="#fff"/><use xlink:href="#c" transform="matrix(1,0,0,1,667.0000000000001,265) translate(2.708703703703703 19.71527777777778)"/><path d="M498 380c0 11.05-8.5 20-19 20s-19-8.95-19-20 8.5-20 19-20 19 8.95 19 20z" stroke="#282c33" stroke-width="2" fill="#fff"/><use xlink:href="#d" transform="matrix(1,0,0,1,465,365) translate(2.708703703703703 19.71527777777778)"/><path d="M576 380c0 11.05-8.5 20-19 20s-19-8.95-19-20 8.5-20 19-20 19 8.95 19 20z" stroke="#282c33" stroke-width="2" fill="#fff"/><use xlink:href="#e" transform="matrix(1,0,0,1,542.9999999999999,365) translate(2.708703703703703 19.71527777777778)"/><path d="M658 380c0 11.05-8.5 20-19 20s-19-8.95-19-20 8.5-20 19-20 19 8.95 19 20z" stroke="#282c33" stroke-width="2" fill="#fff"/><use xlink:href="#f" transform="matrix(1,0,0,1,625,365) translate(2.708703703703703 19.71527777777778)"/><path d="M738 380c0 11.05-8.5 20-19 20s-19-8.95-19-20 8.5-20 19-20 19 8.95 19 20z" stroke="#282c33" stroke-width="2" fill="#fff"/><use xlink:href="#g" transform="matrix(1,0,0,1,705,365) translate(2.708703703703703 19.71527777777778)"/><path d="M479 358.5V336a6 6 0 0 1 6-6h28a6 6 0 0 0 6-6v-6.62" stroke="#3a414a" fill="none"/><path d="M479.48 359.05l-.44-.05-.52.02v-.53h.96z" stroke="#3a414a" stroke-width=".05" fill="#3a414a"/><path d="M519 302.62l4.63 14.26h-9.26z" stroke="#3a414a" fill="#3a414a"/><path d="M557 358.5V336a6 6 0 0 0-6-6h-26a6 6 0 0 1-6-6v-6.62" stroke="#3a414a" fill="none"/><path d="M557.48 359.05l-.44-.05-.5.02v-.53h.94z" stroke="#3a414a" stroke-width=".05" fill="#3a414a"/><path d="M519 302.62l4.63 14.26h-9.26z" stroke="#3a414a" fill="#3a414a"/><path d="M639 358.5V336a6 6 0 0 1 6-6h30a6 6 0 0 0 6-6v-6.62" stroke="#3a414a" fill="none"/><path d="M639.48 359.05l-.44-.05-.5.02v-.53h.94z" stroke="#3a414a" stroke-width=".05" fill="#3a414a"/><path d="M681 302.62l4.63 14.26h-9.26z" stroke="#3a414a" fill="#3a414a"/><path d="M719 358.5V336a6 6 0 0 0-6-6h-26a6 6 0 0 1-6-6v-6.62" stroke="#3a414a" fill="none"/><path d="M719.48 359.05l-.44-.05-.5.02v-.53h.94z" stroke="#3a414a" stroke-width=".05" fill="#3a414a"/><path d="M681 302.62l4.63 14.26h-9.26z" stroke="#3a414a" fill="#3a414a"/><path d="M519 258.5V236a6 6 0 0 1 6-6h64a6 6 0 0 0 6-6v-6.62" stroke="#3a414a" fill="none"/><path d="M519.48 259.05l-.44-.05-.5.02v-.53h.94z" stroke="#3a414a" stroke-width=".05" fill="#3a414a"/><path d="M595 202.62l4.63 14.26h-9.26z" stroke="#3a414a" fill="#3a414a"/><path d="M684.56 258.94v-22.72a6 6 0 0 0-6-6H601a6 6 0 0 1-6-6v-6.84" stroke="#3a414a" fill="none"/><path d="M685.04 259.5l-.95-.12v-.45h.94z" stroke="#3a414a" stroke-width=".05" fill="#3a414a"/><path d="M595 202.62l4.63 14.26h-9.26z" stroke="#3a414a" fill="#3a414a"/><defs><path fill="#3a414a" d="M81-9v9H4v-9l26-5 81-224h33l83 224 30 5v9h-99v-9l31-5-23-68H73L49-14zm38-203L78-98h82" id="h"/><use transform="matrix(0.06172839506172839,0,0,0.06172839506172839,0,0)" xlink:href="#h" id="a"/><path fill="#3a414a" d="M75-131c50 2 93 3 93-48 0-46-48-41-93-41v89zm0 115c55 4 111 6 111-51 0-53-58-48-111-48v99zm148-52C223 24 102-3 10 0v-9l31-5v-208l-31-4v-10c77 6 193-24 194 56 0 33-20 48-48 54 36 5 67 20 67 58" id="i"/><path fill="#3a414a" d="M110-14l48 5v9H32v-9l48-5v-192l-48 17v-10l69-39h9v224" id="j"/><g id="b"><use transform="matrix(0.06172839506172839,0,0,0.06172839506172839,0,0)" xlink:href="#i"/><use transform="matrix(0.043209876543209874,0,0,0.043209876543209874,14.814814814814813,3.1111111111111107)" xlink:href="#j"/></g><path fill="#3a414a" d="M24-231c66-21 156 2 128 81C132-92 78-66 39-27h121V0H16v-26l59-54c26-25 47-47 47-97 0-48-47-57-81-37l-6 29H24v-46" id="k"/><g id="c"><use transform="matrix(0.06172839506172839,0,0,0.06172839506172839,0,0)" xlink:href="#i"/><use transform="matrix(0.043209876543209874,0,0,0.043209876543209874,14.814814814814813,3.1111111111111107)" xlink:href="#k"/></g><path fill="#3a414a" d="M52-115c0 93 80 130 150 87l7-35h11l-1 55c-23 7-52 12-83 12C60 4 19-37 15-115c-5-113 97-141 201-114l1 51h-12l-5-30c-15-9-39-16-62-16-66 0-86 41-86 109" id="l"/><g id="d"><use transform="matrix(0.06172839506172839,0,0,0.06172839506172839,0,0)" xlink:href="#l"/><use transform="matrix(0.043209876543209874,0,0,0.043209876543209874,14.814814814814813,3.1111111111111107)" xlink:href="#j"/></g><g id="e"><use transform="matrix(0.06172839506172839,0,0,0.06172839506172839,0,0)" xlink:href="#l"/><use transform="matrix(0.043209876543209874,0,0,0.043209876543209874,14.814814814814813,3.1111111111111107)" xlink:href="#k"/></g><path fill="#3a414a" d="M104-123c39 3 61 21 62 59C167 7 83 12 19-4l-2-50h12c2 29 16 43 51 43 38 0 54-19 54-55 2-43-34-49-75-50v-14c37 0 64-7 64-48 0-47-47-56-81-36l-6 29H24v-46c51-13 135-13 131 51-2 34-20 52-51 57" id="m"/><g id="f"><use transform="matrix(0.06172839506172839,0,0,0.06172839506172839,0,0)" xlink:href="#l"/><use transform="matrix(0.043209876543209874,0,0,0.043209876543209874,14.814814814814813,3.1111111111111107)" xlink:href="#m"/></g><path fill="#3a414a" d="M142-52V0h-30v-52H7v-23l115-162h20v160h32v25h-32zm-30-25l-1-119L27-77h85" id="n"/><g id="g"><use transform="matrix(0.06172839506172839,0,0,0.06172839506172839,0,0)" xlink:href="#l"/><use transform="matrix(0.043209876543209874,0,0,0.043209876543209874,14.814814814814813,3.1111111111111107)" xlink:href="#n"/></g></defs></g></svg>